<?xml version="1.0" standalone="no"?>
<!DOCTYPE svg PUBLIC "-//W3C//DTD SVG 20010904//EN"
 "http://www.w3.org/TR/2001/REC-SVG-20010904/DTD/svg10.dtd">
<svg version="1.0" xmlns="http://www.w3.org/2000/svg"
 width="700.000000pt" height="700.000000pt" viewBox="0 0 700.000000 700.000000"
 preserveAspectRatio="xMidYMid meet">
<metadata>
Created by potrace 1.14, written by Peter Selinger 2001-2017
</metadata>
<g transform="translate(0.000000,700.000000) scale(0.100000,-0.100000)"
fill="#000000" stroke="none">
<path d="M3630 5200 c-417 -74 -775 -344 -945 -713 -49 -106 -85 -223 -91
-298 -6 -64 -6 -66 26 -92 17 -15 36 -27 41 -27 9 0 160 -25 209 -35 14 -3 52
-10 85 -15 33 -5 71 -12 85 -15 14 -3 66 -12 115 -20 50 -9 124 -22 165 -30
41 -8 89 -17 105 -20 17 -3 44 -7 60 -10 17 -3 82 -15 145 -26 63 -11 120 -22
126 -24 8 -2 9 -17 4 -47 -5 -24 -11 -59 -14 -78 -3 -19 -12 -71 -20 -115 -8
-44 -17 -93 -19 -110 -5 -29 -22 -125 -32 -175 -3 -14 -9 -50 -14 -80 -19
-114 -63 -355 -65 -357 -2 -2 -77 11 -176 32 -89 18 -130 26 -165 31 -22 3
-69 10 -105 16 -186 29 -523 31 -690 4 -399 -65 -694 -187 -1133 -473 -155
-101 -268 -163 -327 -179 -30 -8 -66 -21 -79 -27 -29 -14 -51 -61 -45 -97 5
-28 56 -80 80 -80 12 0 14 -5 9 -17 -4 -10 -10 -43 -12 -73 -7 -80 25 -157 91
-225 49 -49 52 -55 40 -77 -28 -49 -10 -109 40 -131 26 -12 373 -14 2321 -13
l2290 1 -3 25 c-5 30 -40 121 -54 138 -13 15 -19 11 73 56 42 20 90 51 107 69
57 60 62 143 13 237 l-28 55 31 15 c44 22 62 59 51 106 -14 53 -47 73 -130 79
-129 9 -285 42 -590 127 -255 71 -313 87 -375 104 -30 8 -62 16 -70 19 -21 6
-430 114 -455 120 -11 2 -58 14 -105 25 -112 27 -215 50 -290 65 -14 3 -41 8
-60 12 -19 4 -39 7 -45 8 -5 0 -10 9 -9 20 1 33 14 127 18 134 2 3 7 26 10 51
3 25 8 56 11 70 3 14 14 78 26 142 11 64 22 127 24 140 6 31 23 124 30 168 18
111 44 242 48 246 2 2 91 -12 198 -31 107 -18 212 -36 234 -40 23 -3 52 -7 65
-10 14 -3 77 -14 140 -25 63 -12 126 -23 140 -25 14 -3 52 -10 85 -15 108 -18
113 -19 200 -37 40 -8 63 -6 95 7 34 14 48 40 60 110 9 56 7 308 -4 368 -30
180 -129 406 -240 554 -204 269 -529 463 -861 514 -103 15 -341 12 -445 -6z"/>
</g>
</svg>
